<svg width="37" height="27" viewBox="0 0 37 27" fill="none" xmlns="http://www.w3.org/2000/svg">
<path d="M18.5535 23.421C19.0329 23.7645 19.1383 24.4275 18.7825 24.897L17.5504 26.535C17.2221 26.976 16.5091 27.096 16.045 26.7615C15.5656 26.415 15.4602 25.7535 15.8129 25.2825L17.0481 23.6445C17.3977 23.1795 18.071 23.0715 18.5535 23.421ZM11.028 21.852L12.2601 20.2215C12.6112 19.7505 12.5105 19.089 12.028 18.741C11.5456 18.393 10.8738 18.4965 10.5226 18.9675L9.29202 20.5995C8.94086 21.069 9.04315 21.7335 9.52256 22.08C9.97754 22.407 10.6951 22.299 11.028 21.852ZM14.8694 22.089L13.6403 23.718C13.2876 24.1905 13.393 24.8535 13.8708 25.2C14.3304 25.5315 15.0465 25.4175 15.3778 24.9735L16.6068 23.3415C16.9595 22.872 16.8557 22.209 16.3763 21.861C15.8984 21.516 15.2266 21.6165 14.8694 22.089ZM20.3093 25.2645C20.1139 25.7175 19.5887 26.3535 19.2299 26.8305C19.4665 26.9505 19.7016 27 19.9184 27C20.746 27 21.2956 26.2335 20.5521 25.503L20.3093 25.2645ZM12.6967 20.529L11.457 22.173C11.1058 22.644 11.2173 23.292 11.6952 23.64C12.1654 23.9775 12.8677 23.865 13.193 23.4255L14.4327 21.78C14.7869 21.312 14.6816 20.6475 14.2006 20.301C13.7197 19.956 13.0479 20.0595 12.6967 20.529ZM32.1572 19.3125L36.6429 18.141L34.226 9L29.6777 10.344L32.1572 19.3125ZM28.3677 11.3295C26.1493 11.4885 24.0408 10.686 21.7246 9.5115C21.2147 9.2535 20.6269 9.0435 20.0528 9.0435C19.5245 9.0435 19.007 9.222 18.5733 9.705C17.0099 11.4465 16.1015 12.9855 14.2388 14.052C13.3212 14.5785 14.3976 16.227 16.3702 15.5505C17.3748 15.204 18.7367 14.31 19.8467 13.431C20.72 12.7395 21.2422 12.84 21.9995 13.584C23.4163 14.9775 28.1875 19.6035 28.1875 19.6035C28.925 19.1565 29.638 18.795 30.3449 18.4845L28.3677 11.3295ZM6.9652 10.344L2.4169 9L0 18.141L4.4857 19.3125L6.9652 10.344ZM27.4333 21.033C26.6943 20.2305 21.7277 15.4335 20.8452 14.568C19.3474 15.672 17.3748 17.2095 15.4694 17.2095C14.0296 17.2095 12.7945 16.374 12.4647 15.1785C12.2005 14.226 12.6067 13.251 13.4724 12.7545C14.5564 12.1335 15.2755 11.283 16.1519 10.218C13.4739 8.556 11.1898 11.256 8.29045 11.2815L6.34685 18.309C7.19574 18.507 7.9347 18.717 8.62023 18.9705L9.29202 18.078C10.5012 16.4565 13.0235 16.7925 13.796 18.6045C14.7732 18.6885 15.6068 19.308 15.9702 20.1645C16.9153 20.2455 17.7626 20.835 18.1413 21.723C19.5703 21.8445 20.7368 23.118 20.4772 24.681L21.4758 25.662C21.8956 26.076 22.5796 26.0745 22.998 25.662C23.4194 25.248 23.4194 24.5775 22.998 24.1635L21.0681 22.266C20.9628 22.1625 20.9628 21.9915 21.0727 21.888C21.178 21.789 21.346 21.7905 21.4498 21.891L23.7751 24.177C24.195 24.591 24.879 24.591 25.2988 24.177C25.7202 23.763 25.7202 23.094 25.2988 22.68L22.4361 19.866C22.3262 19.7595 22.3308 19.584 22.4453 19.4835C22.5506 19.389 22.717 19.3905 22.8163 19.491L25.908 22.5285C26.3279 22.9425 27.0119 22.9425 27.4318 22.5285C27.8531 22.116 27.8532 21.447 27.4333 21.033ZM16.1564 0L14.6541 0.261L15.4495 4.692L16.9519 4.431L16.1564 0ZM21.9888 0.261L20.4864 0L19.691 4.431L21.1964 4.692L21.9888 0.261ZM27.4821 2.103L26.1584 1.353L23.8682 5.25L25.192 6L27.4821 2.103ZM10.4844 1.353L9.16071 2.103L11.4509 6L12.7746 5.25L10.4844 1.353Z" fill="#5295F1"/>
</svg>
