<svg width="27" height="27" viewBox="0 0 27 27" fill="none" xmlns="http://www.w3.org/2000/svg">
<path d="M27 2.25V27H0V2.25H3.375V3.375C3.375 4.61588 4.38412 5.625 5.625 5.625C6.86588 5.625 7.875 4.61588 7.875 3.375V2.25H19.125V3.375C19.125 4.61588 20.1341 5.625 21.375 5.625C22.6159 5.625 23.625 4.61588 23.625 3.375V2.25H27ZM24.75 9H2.25V24.75H24.75V9ZM22.5 1.125C22.5 0.504 21.9971 0 21.375 0C20.7529 0 20.25 0.504 20.25 1.125V3.375C20.25 3.996 20.7529 4.5 21.375 4.5C21.9971 4.5 22.5 3.996 22.5 3.375V1.125ZM6.75 3.375C6.75 3.996 6.24713 4.5 5.625 4.5C5.00287 4.5 4.5 3.996 4.5 3.375V1.125C4.5 0.504 5.00287 0 5.625 0C6.24713 0 6.75 0.504 6.75 1.125V3.375ZM7.875 16.5701L8.83687 15.6803C9.96187 16.2248 10.6762 16.6388 11.9419 17.541C14.319 14.8421 15.8918 13.473 18.8111 11.6561L19.125 12.3761C16.7164 14.4788 14.9524 16.8188 12.4121 21.375C10.845 19.53 9.79988 18.3533 7.875 16.5701Z" fill="#5295F1"/>
</svg>
