<svg width="27" height="25" viewBox="0 0 27 25" fill="none" xmlns="http://www.w3.org/2000/svg">
<path fill-rule="evenodd" clip-rule="evenodd" d="M3.9375 17.3859L5.14125 19.8687L7.875 20.2456L5.88487 22.1581L6.37088 24.875L3.9375 23.5734L1.50412 24.875L1.99013 22.1581L0 20.2456L2.73375 19.8687L3.9375 17.3859ZM13.5 17.3859L14.7037 19.8687L17.4375 20.2456L15.4474 22.1581L15.9334 24.875L13.5 23.5734L11.0666 24.875L11.5526 22.1581L9.5625 20.2456L12.2963 19.8687L13.5 17.3859ZM23.0625 17.3859L24.2663 19.8687L27 20.2456L25.0099 22.1581L25.4959 24.875L23.0625 23.5734L20.6291 24.875L21.1151 22.1581L19.125 20.2456L21.8587 19.8687L23.0625 17.3859ZM21.9454 13.625H21.9341C21.9589 8.10575 19.4074 10.5065 19.4074 6.1145C19.4074 4.41913 20.5133 3.5 21.9364 3.5C24.039 3.5 25.5015 5.51037 23.5103 9.27012C22.8566 10.5065 24.2078 10.799 25.659 11.1343C26.9167 11.4245 27 12.0399 27 13.1041V15.875H21.9454V13.625ZM0 15.875V13.1041C0 12.0399 0.08325 11.4245 1.341 11.1343C2.79225 10.799 4.14337 10.5065 3.48975 9.27012C1.4985 5.51037 2.961 3.5 5.06362 3.5C6.48675 3.5 7.59263 4.41913 7.59263 6.1145C7.59263 10.5065 5.04112 8.10575 5.06587 13.625H5.0715V15.875H0ZM6.75 15.875V12.9241C6.75 11.5089 6.8625 10.691 8.5365 10.304C10.431 9.86637 12.2985 9.476 11.3996 7.81888C8.73788 2.90938 10.6414 0.125 13.4989 0.125C16.3012 0.125 18.2531 2.80588 15.5981 7.81888C14.7262 9.46588 16.5274 9.85738 18.4613 10.304C20.1375 10.691 20.2489 11.51 20.2489 12.9286L20.25 15.875H6.75Z" fill="#5295F1"/>
</svg>
