<svg width="17" height="20" viewBox="0 0 17 20" fill="none" xmlns="http://www.w3.org/2000/svg">
<path d="M11.2321 16.875H11.8393C11.9911 16.875 12.1429 16.7578 12.1429 16.5625V5.9375C12.1429 5.78125 11.9911 5.625 11.8393 5.625H11.2321C11.0424 5.625 10.9286 5.78125 10.9286 5.9375V16.5625C10.9286 16.7578 11.0424 16.875 11.2321 16.875ZM5.16071 16.875H5.76786C5.91964 16.875 6.07143 16.7578 6.07143 16.5625V5.9375C6.07143 5.78125 5.91964 5.625 5.76786 5.625H5.16071C4.97098 5.625 4.85714 5.78125 4.85714 5.9375V16.5625C4.85714 16.7578 4.97098 16.875 5.16071 16.875ZM16.6964 2.5H12.75L11.4598 0.78125C11.1183 0.3125 10.5871 0 10.0179 0H6.98214C6.375 0 5.84375 0.3125 5.50223 0.78125L4.25 2.5H0.303571C0.113839 2.5 0 2.65625 0 2.8125V3.4375C0 3.63281 0.113839 3.75 0.303571 3.75H1.21429V18.125C1.21429 19.1797 2.01116 20 3.03571 20H13.9643C14.9509 20 15.7857 19.1797 15.7857 18.125V3.75H16.6964C16.8482 3.75 17 3.63281 17 3.4375V2.8125C17 2.65625 16.8482 2.5 16.6964 2.5ZM6.48884 1.52344C6.60268 1.36719 6.75446 1.28906 6.98214 1.25H10.0179C10.2076 1.28906 10.3594 1.36719 10.4732 1.52344L11.2321 2.5H5.76786L6.48884 1.52344ZM14.5714 18.125C14.5714 18.4766 14.2679 18.75 13.9643 18.75H3.03571C2.6942 18.75 2.42857 18.4766 2.42857 18.125V3.75H14.5714V18.125ZM8.19643 16.875H8.80357C8.95536 16.875 9.10714 16.7578 9.10714 16.5625V5.9375C9.10714 5.78125 8.95536 5.625 8.80357 5.625H8.19643C8.0067 5.625 7.89286 5.78125 7.89286 5.9375V16.5625C7.89286 16.7578 8.0067 16.875 8.19643 16.875Z" fill="white"/>
</svg>
