<svg width="18" height="20" viewBox="0 0 18 20" fill="none" xmlns="http://www.w3.org/2000/svg">
<path d="M16.0714 2.5H14.1429V0.46875C14.1429 0.234375 13.9018 0 13.6607 0H13.3393C13.058 0 12.8571 0.234375 12.8571 0.46875V2.5H5.14286V0.46875C5.14286 0.234375 4.90179 0 4.66071 0H4.33929C4.05804 0 3.85714 0.234375 3.85714 0.46875V2.5H1.92857C0.84375 2.5 0 3.35938 0 4.375V18.125C0 19.1797 0.84375 20 1.92857 20H16.0714C17.1161 20 18 19.1797 18 18.125V4.375C18 3.35938 17.1161 2.5 16.0714 2.5ZM1.92857 3.75H16.0714C16.3929 3.75 16.7143 4.0625 16.7143 4.375V6.25H1.28571V4.375C1.28571 4.0625 1.56696 3.75 1.92857 3.75ZM16.0714 18.75H1.92857C1.56696 18.75 1.28571 18.4766 1.28571 18.125V7.5H16.7143V18.125C16.7143 18.4766 16.3929 18.75 16.0714 18.75ZM5.94643 12.5C6.1875 12.5 6.42857 12.3047 6.42857 12.0312V10.4688C6.42857 10.2344 6.1875 10 5.94643 10H4.33929C4.05804 10 3.85714 10.2344 3.85714 10.4688V12.0312C3.85714 12.3047 4.05804 12.5 4.33929 12.5H5.94643ZM9.80357 12.5C10.0446 12.5 10.2857 12.3047 10.2857 12.0312V10.4688C10.2857 10.2344 10.0446 10 9.80357 10H8.19643C7.91518 10 7.71429 10.2344 7.71429 10.4688V12.0312C7.71429 12.3047 7.91518 12.5 8.19643 12.5H9.80357ZM13.6607 12.5C13.9018 12.5 14.1429 12.3047 14.1429 12.0312V10.4688C14.1429 10.2344 13.9018 10 13.6607 10H12.0536C11.7723 10 11.5714 10.2344 11.5714 10.4688V12.0312C11.5714 12.3047 11.7723 12.5 12.0536 12.5H13.6607ZM9.80357 16.25C10.0446 16.25 10.2857 16.0547 10.2857 15.7812V14.2188C10.2857 13.9844 10.0446 13.75 9.80357 13.75H8.19643C7.91518 13.75 7.71429 13.9844 7.71429 14.2188V15.7812C7.71429 16.0547 7.91518 16.25 8.19643 16.25H9.80357ZM5.94643 16.25C6.1875 16.25 6.42857 16.0547 6.42857 15.7812V14.2188C6.42857 13.9844 6.1875 13.75 5.94643 13.75H4.33929C4.05804 13.75 3.85714 13.9844 3.85714 14.2188V15.7812C3.85714 16.0547 4.05804 16.25 4.33929 16.25H5.94643ZM13.6607 16.25C13.9018 16.25 14.1429 16.0547 14.1429 15.7812V14.2188C14.1429 13.9844 13.9018 13.75 13.6607 13.75H12.0536C11.7723 13.75 11.5714 13.9844 11.5714 14.2188V15.7812C11.5714 16.0547 11.7723 16.25 12.0536 16.25H13.6607Z" fill="#5295F1"/>
</svg>
