<svg width="26" height="20" viewBox="0 0 26 20" fill="none" xmlns="http://www.w3.org/2000/svg">
<path d="M25.6842 18.2628C25.6842 18.2183 24.6918 17.1492 24.0152 15.8129C25.2331 14.6102 26 13.0958 26 11.4031C26 7.83964 22.5266 4.89978 18.0157 4.4098C16.6173 1.82628 13.2792 0 9.39979 0C4.21223 0 0.0170645 3.20713 0.0170645 7.12695C0.0170645 8.77506 0.738813 10.2895 2.00187 11.5367C1.28012 12.8731 0.28772 13.9421 0.28772 13.9866C0.0170645 14.2539 -0.073154 14.6993 0.0621738 15.1002C0.242611 15.4566 0.603485 15.7238 1.05458 15.7238C3.44537 15.7238 5.38507 14.7884 6.69324 13.9866C7.09922 14.0757 7.5052 14.1203 7.9563 14.2094C9.35468 16.7483 12.6928 18.5746 16.6173 18.5746C17.5195 18.5746 18.4216 18.441 19.2787 18.2628C20.5869 19.0646 22.5266 20 24.9625 20C25.3685 20 25.7293 19.7327 25.9098 19.3764C26.0451 18.9755 26 18.5301 25.6842 18.2628ZM7.009 12.5612L6.42258 12.4276L5.88127 12.784C4.97908 13.363 3.62581 14.0312 1.95676 14.2094C2.31764 13.7194 2.85895 13.0067 3.26493 12.1604L3.76113 11.2249L2.99428 10.5122C2.27253 9.79955 1.46056 8.68597 1.46056 7.12695C1.46056 4.00891 5.02419 1.42539 9.39979 1.42539C13.7754 1.42539 17.339 4.00891 17.339 7.12695C17.339 10.2895 13.7754 12.8285 9.39979 12.8285C8.58782 12.8285 7.77586 12.7394 7.009 12.5612ZM20.0907 17.0601L19.5494 16.7038L18.963 16.882C18.1961 17.0601 17.3841 17.1492 16.6173 17.1492C13.6401 17.1492 11.1139 15.9911 9.71556 14.2539C14.7227 14.1203 18.7825 11.0022 18.7825 7.12695C18.7825 6.72606 18.6923 6.32517 18.6021 5.92428C22.0304 6.54788 24.5565 8.77506 24.5565 11.4031C24.5565 12.9621 23.6994 14.0757 22.9777 14.7884L22.2559 15.5011L22.707 16.4365C23.113 17.2829 23.6543 17.9955 24.0152 18.4855C22.3461 18.3074 20.9929 17.6392 20.0907 17.0601Z" fill="#949494"/>
</svg>
