<svg width="22" height="17" viewBox="0 0 22 17" fill="none" xmlns="http://www.w3.org/2000/svg">
<path d="M15.625 6C15.625 2.90625 12.3203 0.375 8.3125 0.375C4.26953 0.375 1 2.90625 1 6C1 7.23047 1.49219 8.32031 2.33594 9.23438C1.84375 10.3242 1.07031 11.168 1.07031 11.168C1 11.2383 0.964844 11.3789 1 11.4844C1.07031 11.5898 1.14062 11.625 1.28125 11.625C2.54688 11.625 3.60156 11.2031 4.375 10.7461C5.5 11.3086 6.87109 11.625 8.3125 11.625C12.3203 11.625 15.625 9.12891 15.625 6ZM19.9141 13.7344C20.7227 12.8203 21.25 11.7305 21.25 10.5C21.25 8.17969 19.3516 6.14062 16.6797 5.29688C16.7148 5.54297 16.75 5.78906 16.75 6C16.75 9.72656 12.9531 12.75 8.3125 12.75C7.92578 12.75 7.53906 12.75 7.1875 12.7148C8.27734 14.7188 10.8789 16.125 13.9375 16.125C15.3789 16.125 16.7148 15.8086 17.8398 15.2461C18.6133 15.7031 19.668 16.125 20.9688 16.125C21.0742 16.125 21.1797 16.0898 21.2148 15.9844C21.25 15.8789 21.25 15.7383 21.1445 15.668C21.1445 15.668 20.3711 14.8242 19.9141 13.7344Z" fill="#919191"/>
</svg>
