<svg width="20" height="20" viewBox="0 0 20 20" fill="none" xmlns="http://www.w3.org/2000/svg">
<path d="M10 0C4.47581 0 0 4.47581 0 10C0 15.5242 4.47581 20 10 20C15.5242 20 20 15.5242 20 10C20 4.47581 15.5242 0 10 0ZM18.7097 10C18.7097 14.7984 14.7984 18.7097 10 18.7097C5.20161 18.7097 1.29032 14.8387 1.29032 10C1.29032 5.24194 5.16129 1.29032 10 1.29032C14.7581 1.29032 18.7097 5.20161 18.7097 10ZM12.7016 13.5887C12.9032 13.75 13.2258 13.6694 13.3468 13.4677L13.7097 13.0242C13.871 12.7823 13.7903 12.5 13.5887 12.3387L10.7661 10.2823V4.35484C10.7661 4.1129 10.5242 3.87097 10.2823 3.87097H9.71774C9.43548 3.87097 9.23387 4.1129 9.23387 4.35484V10.8065C9.23387 10.9677 9.27419 11.0887 9.39516 11.2097L12.7016 13.5887Z" fill="#5295F1"/>
</svg>
