<svg width="23" height="17" viewBox="0 0 23 17" fill="none" xmlns="http://www.w3.org/2000/svg">
<path d="M6.75 8.25C8.89453 8.25 10.6875 6.49219 10.6875 4.3125C10.6875 2.16797 8.89453 0.375 6.75 0.375C4.57031 0.375 2.8125 2.16797 2.8125 4.3125C2.8125 6.49219 4.57031 8.25 6.75 8.25ZM9.42188 9.375H9.14062C8.40234 9.72656 7.59375 9.9375 6.75 9.9375C5.87109 9.9375 5.0625 9.72656 4.32422 9.375H4.04297C1.79297 9.375 0 11.2031 0 13.4531V14.4375C0 15.3867 0.738281 16.125 1.6875 16.125H11.8125C12.7266 16.125 13.5 15.3867 13.5 14.4375V13.4531C13.5 11.2031 11.6719 9.375 9.42188 9.375ZM16.875 8.25C18.7383 8.25 20.25 6.73828 20.25 4.875C20.25 3.01172 18.7383 1.5 16.875 1.5C15.0117 1.5 13.5 3.01172 13.5 4.875C13.5 6.73828 15.0117 8.25 16.875 8.25ZM18.5625 9.375H18.4219C17.9297 9.55078 17.4023 9.65625 16.875 9.65625C16.3125 9.65625 15.7852 9.55078 15.293 9.375H15.1875C14.4492 9.375 13.7812 9.58594 13.2188 9.9375C14.0625 10.8516 14.625 12.082 14.625 13.4531V14.7891C14.625 14.8594 14.5898 14.9297 14.5898 15H20.8125C21.7266 15 22.5 14.2617 22.5 13.3125C22.5 11.168 20.707 9.375 18.5625 9.375Z" fill="#5295F1"/>
</svg>
