<svg width="29" height="20" viewBox="0 0 29 20" fill="none" xmlns="http://www.w3.org/2000/svg">
<path d="M21.5 10C23.8188 10 25.7 8.08036 25.7 5.71429C25.7 3.34821 23.8188 1.42857 21.5 1.42857C19.1812 1.42857 17.3 3.34821 17.3 5.71429C17.3 8.08036 19.1812 10 21.5 10ZM21.5 2.85714C23.0312 2.85714 24.3 4.15179 24.3 5.71429C24.3 7.32143 23.0312 8.57143 21.5 8.57143C19.925 8.57143 18.7 7.32143 18.7 5.71429C18.7 4.15179 19.925 2.85714 21.5 2.85714ZM8.9 10C11.5688 10 13.8 7.76786 13.8 5C13.8 2.27679 11.5688 0 8.9 0C6.1875 0 4 2.27679 4 5C4 7.76786 6.1875 10 8.9 10ZM8.9 1.42857C10.825 1.42857 12.4 3.03571 12.4 5C12.4 7.00893 10.825 8.57143 8.9 8.57143C6.93125 8.57143 5.4 7.00893 5.4 5C5.4 3.03571 6.93125 1.42857 8.9 1.42857ZM12.4 10.8929C10.9125 10.8929 10.5625 11.4286 8.9 11.4286C7.19375 11.4286 6.84375 10.8929 5.35625 10.8929C3.78125 10.8929 2.25 11.6518 1.33125 12.9911C0.80625 13.8393 0.5 14.8214 0.5 15.8929V17.8571C0.5 19.0625 1.41875 20 2.6 20H15.2C16.3375 20 17.3 19.0625 17.3 17.8571V15.8929C17.3 14.8214 16.95 13.8393 16.425 12.9911C15.5063 11.6518 13.975 10.8929 12.4 10.8929ZM15.9 17.8571C15.9 18.2589 15.55 18.5714 15.2 18.5714H2.6C2.20625 18.5714 1.9 18.2589 1.9 17.8571V15.8929C1.9 15.1339 2.075 14.4196 2.5125 13.7946C3.08125 12.9018 4.175 12.3214 5.35625 12.3214C6.58125 12.3214 7.01875 12.8571 8.9 12.8571C10.7812 12.8571 11.175 12.3214 12.4 12.3214C13.5813 12.3214 14.675 12.9018 15.2437 13.7946C15.6812 14.4196 15.8562 15.1339 15.8562 15.8929V17.8571H15.9ZM27.7563 12.7679C27.0125 11.6071 25.7437 10.9821 24.3875 10.9821C23.2062 10.9821 22.9 11.4286 21.5 11.4286C20.1 11.4286 19.7938 10.9821 18.5688 10.9821C18 10.9821 17.4312 11.1161 16.9062 11.3839C17.5625 12.0536 17.6938 12.4107 17.7812 12.5446C18.0438 12.5 18.2625 12.4554 18.5688 12.4554C19.5312 12.4554 19.8813 12.9018 21.5 12.9018C23.075 12.9018 23.4688 12.4554 24.3875 12.4554C25.3062 12.4554 26.1375 12.8571 26.6187 13.5714C26.925 14.0179 27.1 14.5536 27.1 15.1339V16.7857C27.1 17.0089 26.925 17.1429 26.75 17.1429H18.7C18.7 17.9464 18.7 18.1696 18.6125 18.5714H26.75C27.7125 18.5714 28.5 17.8125 28.5 16.7857V15.1339C28.5 14.2411 28.2375 13.4375 27.7563 12.7679Z" fill="#5295F1"/>
</svg>
