<svg width="20" height="20" viewBox="0 0 20 20" fill="none" xmlns="http://www.w3.org/2000/svg">
<path d="M12.9096 9.96933L19.5246 3.41558C19.8921 3.04808 19.8921 2.37433 19.5246 2.00683L17.9933 0.475576C17.6258 0.108076 16.9521 0.108076 16.5846 0.475576L10.0308 7.09058L3.41582 0.475576C3.04832 0.108076 2.37457 0.108076 2.00707 0.475576L0.47582 2.00683C0.10832 2.37433 0.10832 3.04808 0.47582 3.41558L7.09082 9.96933L0.47582 16.5843C0.10832 16.9518 0.10832 17.6256 0.47582 17.9931L2.00707 19.5243C2.37457 19.8918 3.04832 19.8918 3.41582 19.5243L10.0308 12.9093L16.5846 19.5243C16.9521 19.8918 17.6258 19.8918 17.9933 19.5243L19.5246 17.9931C19.8921 17.6256 19.8921 16.9518 19.5246 16.5843L12.9096 9.96933Z" fill="white"/>
</svg>
