<svg width="11" height="11" viewBox="0 0 11 11" fill="none" xmlns="http://www.w3.org/2000/svg">
<path d="M7.13281 5.48281L10.8453 1.80469C11.0516 1.59844 11.0516 1.22031 10.8453 1.01406L9.98594 0.154688C9.77969 -0.0515625 9.40156 -0.0515625 9.19531 0.154688L5.51719 3.86719L1.80469 0.154688C1.59844 -0.0515625 1.22031 -0.0515625 1.01406 0.154688L0.154688 1.01406C-0.0515625 1.22031 -0.0515625 1.59844 0.154688 1.80469L3.86719 5.48281L0.154688 9.19531C-0.0515625 9.40156 -0.0515625 9.77969 0.154688 9.98594L1.01406 10.8453C1.22031 11.0516 1.59844 11.0516 1.80469 10.8453L5.51719 7.13281L9.19531 10.8453C9.40156 11.0516 9.77969 11.0516 9.98594 10.8453L10.8453 9.98594C11.0516 9.77969 11.0516 9.40156 10.8453 9.19531L7.13281 5.48281Z" fill="#B8B8B8"/>
</svg>
