<svg width="17" height="13" viewBox="0 0 17 13" fill="none" xmlns="http://www.w3.org/2000/svg">
<path d="M16.15 8.9375H15.3V6.47461C15.3 6.04297 14.9281 5.6875 14.4766 5.6875H8.925V4.0625H10.2C10.6516 4.0625 11.05 3.70703 11.05 3.25V0.8125C11.05 0.380859 10.6516 0 10.2 0H6.8C6.32188 0 5.95 0.380859 5.95 0.8125V3.25C5.95 3.70703 6.32188 4.0625 6.8 4.0625H8.075V5.6875H2.49688C2.04531 5.6875 1.7 6.04297 1.7 6.47461V8.9375H0.85C0.371875 8.9375 0 9.31836 0 9.75V12.1875C0 12.6445 0.371875 13 0.85 13H3.4C3.85156 13 4.25 12.6445 4.25 12.1875V9.75C4.25 9.31836 3.85156 8.9375 3.4 8.9375H2.55V6.5H8.075V8.9375H7.225C6.74687 8.9375 6.375 9.31836 6.375 9.75V12.1875C6.375 12.6445 6.74687 13 7.225 13H9.775C10.2266 13 10.625 12.6445 10.625 12.1875V9.75C10.625 9.31836 10.2266 8.9375 9.775 8.9375H8.925V6.5H14.45V8.9375H13.6C13.1219 8.9375 12.75 9.31836 12.75 9.75V12.1875C12.75 12.6445 13.1219 13 13.6 13H16.15C16.6016 13 17 12.6445 17 12.1875V9.75C17 9.31836 16.6016 8.9375 16.15 8.9375ZM3.4 9.75V12.1875H0.85V9.75H3.4ZM9.775 9.75V12.1875H7.225V9.75H9.775ZM6.8 3.25V0.8125H10.2V3.25H6.8ZM16.15 12.1875H13.6V9.75H16.15V12.1875Z" fill="#686868"/>
</svg>
