<svg width="18" height="15" viewBox="0 0 18 15" fill="none" xmlns="http://www.w3.org/2000/svg">
<path d="M1.3125 12.125C1.06641 12.125 0.875 11.9336 0.875 11.6875V7.75H5.25V8.84375C5.25 9.22656 5.52344 9.5 5.90625 9.5H8.09375C8.44922 9.5 8.75 9.22656 8.75 8.84375V7.75H9.84375C10.1172 7.42188 10.4453 7.14844 10.8008 6.875H0.875V4.6875C0.875 4.46875 1.06641 4.25 1.3125 4.25H12.6875C12.9062 4.25 13.125 4.46875 13.125 4.6875V6.02734C13.2617 6.02734 13.3984 6 13.5625 6C13.6992 6 13.8359 6.02734 14 6.02734V4.6875C14 3.97656 13.3984 3.375 12.6875 3.375H9.625V1.40625C9.625 1.05078 9.32422 0.75 8.96875 0.75H5.03125C4.64844 0.75 4.375 1.05078 4.375 1.40625V3.375H1.3125C0.574219 3.375 0 3.97656 0 4.6875V11.6875C0 12.4258 0.574219 13 1.3125 13H9.26953C9.13281 12.7266 8.99609 12.4531 8.91406 12.125H1.3125ZM6.125 7.75H7.875V8.625H6.125V7.75ZM5.25 1.625H8.75V3.375H5.25V1.625ZM15.0391 10.375H14V8.89844C14 8.76172 13.8633 8.625 13.7266 8.625H13.3711C13.2344 8.625 13.125 8.76172 13.125 8.89844V11.0039C13.125 11.1406 13.2344 11.25 13.3711 11.25H15.0391C15.1758 11.25 15.3125 11.1406 15.3125 11.0039V10.6484C15.3125 10.5117 15.1758 10.375 15.0391 10.375ZM13.5625 6.875C11.375 6.875 9.625 8.65234 9.625 10.8125C9.625 13 11.375 14.75 13.5625 14.75C15.7227 14.75 17.5 13 17.5 10.8125C17.5 8.65234 15.7227 6.875 13.5625 6.875ZM13.5625 13.875C11.8672 13.875 10.5 12.5078 10.5 10.8125C10.5 9.14453 11.8672 7.75 13.5625 7.75C15.2305 7.75 16.625 9.14453 16.625 10.8125C16.625 12.5078 15.2305 13.875 13.5625 13.875Z" fill="#686868"/>
</svg>
