<svg width="23" height="15" viewBox="0 0 23 15" fill="none" xmlns="http://www.w3.org/2000/svg">
<path d="M16.9805 10.168L11.7422 5.91406L10.6875 6.86328C9.28125 8.19922 7.62891 7.28516 7.10156 6.72266C6.1875 5.70312 6.25781 4.08594 7.27734 3.13672L10.1602 0.5H7.20703C6.89062 0.5 6.60938 0.640625 6.39844 0.851562L4.5 2.75H0.5625C0.246094 2.75 0 3.03125 0 3.3125V10.0625C0 10.3789 0.246094 10.625 0.5625 10.625H5.13281L8.29688 13.5078C9.28125 14.3164 10.6875 14.1406 11.4609 13.1914H11.4961L12.0938 13.7188C12.6562 14.1758 13.5 14.1055 13.957 13.543L15.0469 12.1719L15.2578 12.3477C15.7148 12.7344 16.418 12.6641 16.8398 12.1719L17.1562 11.75C17.543 11.2578 17.4727 10.5547 16.9805 10.168ZM21.9375 2.75H18L16.0664 0.851562C15.8555 0.640625 15.5742 0.5 15.2578 0.5H12.2344C11.9531 0.5 11.707 0.605469 11.4961 0.816406L8.05078 3.98047C8.01562 3.98047 8.01562 3.98047 8.01562 3.98047C7.45312 4.54297 7.45312 5.42188 7.94531 5.94922C8.29688 6.33594 9.17578 6.72266 9.91406 6.05469H9.94922L11.8125 4.33203L12.7617 3.48828C12.9727 3.27734 13.3242 3.27734 13.5352 3.52344C13.7461 3.73438 13.7461 4.08594 13.5 4.29688L12.5859 5.14062L17.7188 9.28906C18.1406 9.64062 18.3867 10.1328 18.4922 10.625H21.9375C22.2188 10.625 22.5 10.3789 22.5 10.0625V3.3125C22.5 3.03125 22.2188 2.75 21.9375 2.75Z" fill="#919191"/>
</svg>
