<svg width="20" height="20" viewBox="0 0 20 20" fill="none" xmlns="http://www.w3.org/2000/svg">
<path d="M10 0C4.47581 0 0 4.51613 0 10C0 15.5242 4.47581 20 10 20C15.4839 20 20 15.5242 20 10C20 4.51613 15.4839 0 10 0ZM10 18.7097C5.20161 18.7097 1.29032 14.8387 1.29032 10C1.29032 5.24194 5.16129 1.29032 10 1.29032C14.7581 1.29032 18.7097 5.20161 18.7097 10C18.7097 14.7984 14.7984 18.7097 10 18.7097ZM15.6855 7.66129C15.8871 7.45968 15.8871 7.1371 15.6855 6.97581L15.3629 6.6129C15.1613 6.41129 14.8387 6.41129 14.6774 6.6129L8.06452 13.1452L5.28226 10.3629C5.12097 10.1613 4.79839 10.1613 4.59677 10.3629L4.27419 10.6855C4.07258 10.8871 4.07258 11.1694 4.27419 11.371L7.74194 14.879C7.90323 15.0403 8.22581 15.0403 8.42742 14.879L15.6855 7.66129Z" fill="#5295F1"/>
</svg>
