<svg width="16" height="19" viewBox="0 0 16 19" fill="none" xmlns="http://www.w3.org/2000/svg">
<path d="M15.3281 5.875C15.5391 5.875 15.75 5.69922 15.75 5.45312V4.1875C15.75 3.27344 14.9766 2.5 14.0625 2.5H12.375V0.671875C12.375 0.460938 12.1641 0.25 11.9531 0.25H10.5469C10.3008 0.25 10.125 0.460938 10.125 0.671875V2.5H5.625V0.671875C5.625 0.460938 5.41406 0.25 5.20312 0.25H3.79688C3.55078 0.25 3.375 0.460938 3.375 0.671875V2.5H1.6875C0.738281 2.5 0 3.27344 0 4.1875V5.45312C0 5.69922 0.175781 5.875 0.421875 5.875H15.3281ZM0.421875 7C0.175781 7 0 7.21094 0 7.42188V16.5625C0 17.5117 0.738281 18.25 1.6875 18.25H14.0625C14.9766 18.25 15.75 17.5117 15.75 16.5625V7.42188C15.75 7.21094 15.5391 7 15.3281 7H0.421875ZM12.1289 10.375C12.2695 10.5508 12.2695 10.832 12.1289 10.9727L7.10156 15.9648C6.92578 16.1406 6.64453 16.1406 6.50391 15.9648L3.58594 13.0469C3.44531 12.8711 3.44531 12.625 3.58594 12.4492L4.60547 11.4648C4.74609 11.2891 5.02734 11.2891 5.20312 11.4648L6.82031 13.082L10.5469 9.39062C10.6875 9.21484 10.9688 9.21484 11.1445 9.39062L12.1289 10.375Z" fill="#919191"/>
</svg>
