<svg width="19" height="20" viewBox="0 0 19 20" fill="none" xmlns="http://www.w3.org/2000/svg">
<path d="M16.5714 2.5H14.6429V0.46875C14.6429 0.234375 14.4018 0 14.1607 0H13.8393C13.558 0 13.3571 0.234375 13.3571 0.46875V2.5H5.64286V0.46875C5.64286 0.234375 5.40179 0 5.16071 0H4.83929C4.55804 0 4.35714 0.234375 4.35714 0.46875V2.5H2.42857C1.34375 2.5 0.5 3.35938 0.5 4.375V18.125C0.5 19.1797 1.34375 20 2.42857 20H16.5714C17.6161 20 18.5 19.1797 18.5 18.125V4.375C18.5 3.35938 17.6161 2.5 16.5714 2.5ZM2.42857 3.75H16.5714C16.8929 3.75 17.2143 4.0625 17.2143 4.375V6.25H1.78571V4.375C1.78571 4.0625 2.06696 3.75 2.42857 3.75ZM16.5714 18.75H2.42857C2.06696 18.75 1.78571 18.4766 1.78571 18.125V7.5H17.2143V18.125C17.2143 18.4766 16.8929 18.75 16.5714 18.75ZM13.8795 11.1719C14.0804 10.9766 14.0804 10.6641 13.8795 10.5078L13.558 10.1562C13.3571 9.96094 13.0357 9.96094 12.875 10.1562L8.13393 14.7266L6.08482 12.7344C5.92411 12.5781 5.60268 12.5781 5.40179 12.7344L5.08036 13.0859C4.87946 13.2422 4.87946 13.5547 5.08036 13.75L7.77232 16.3672C7.97322 16.5625 8.29464 16.5625 8.45536 16.3672L13.8795 11.1719Z" fill="#5295F1"/>
</svg>
