<svg width="22" height="6" viewBox="0 0 22 6" fill="none" xmlns="http://www.w3.org/2000/svg">
<path d="M13.25 3C13.25 1.78125 12.2188 0.75 11 0.75C9.73438 0.75 8.75 1.78125 8.75 3C8.75 4.26562 9.73438 5.25 11 5.25C12.2188 5.25 13.25 4.26562 13.25 3ZM18.875 0.75C17.6094 0.75 16.625 1.78125 16.625 3C16.625 4.26562 17.6094 5.25 18.875 5.25C20.0938 5.25 21.125 4.26562 21.125 3C21.125 1.78125 20.0938 0.75 18.875 0.75ZM3.125 0.75C1.85938 0.75 0.875 1.78125 0.875 3C0.875 4.26562 1.85938 5.25 3.125 5.25C4.34375 5.25 5.375 4.26562 5.375 3C5.375 1.78125 4.34375 0.75 3.125 0.75Z" fill="#222222"/>
</svg>
