<svg width="20" height="20" viewBox="0 0 20 20" fill="none" xmlns="http://www.w3.org/2000/svg">
<path d="M1.05503 11.1668L8.83281 11.1668L8.83281 18.9446C8.83281 19.1391 9.02725 19.3335 9.2217 19.3335H10.7773C11.0203 19.3335 11.1661 19.1391 11.1661 18.9446L11.1661 11.1668L18.9439 11.1668C19.187 11.1668 19.3328 10.9724 19.3328 10.7779V9.22238C19.3328 8.97933 19.187 8.8335 18.9439 8.8335L11.1661 8.8335L11.1661 1.05572C11.1661 0.81266 11.0203 0.666828 10.7773 0.666828H9.2217C9.02725 0.666828 8.83281 0.81266 8.83281 1.05572L8.83281 8.8335L1.05503 8.8335C0.860582 8.8335 0.666138 8.97933 0.666138 9.22238V10.7779C0.666138 10.9724 0.860582 11.1668 1.05503 11.1668Z" fill="white"/>
</svg>
