<svg width="20" height="20" viewBox="0 0 20 20" fill="none" xmlns="http://www.w3.org/2000/svg">
<path d="M1.05499 11.1668L8.83276 11.1668L8.83276 18.9446C8.83276 19.1391 9.02721 19.3335 9.22165 19.3335H10.7772C11.0203 19.3335 11.1661 19.1391 11.1661 18.9446L11.1661 11.1668L18.9439 11.1668C19.1869 11.1668 19.3328 10.9724 19.3328 10.7779V9.22238C19.3328 8.97933 19.1869 8.8335 18.9439 8.8335L11.1661 8.8335L11.1661 1.05572C11.1661 0.81266 11.0203 0.666828 10.7772 0.666828H9.22165C9.02721 0.666828 8.83276 0.81266 8.83276 1.05572L8.83276 8.8335L1.05499 8.8335C0.86054 8.8335 0.666096 8.97933 0.666096 9.22238V10.7779C0.666096 10.9724 0.86054 11.1668 1.05499 11.1668Z" fill="#5295F1"/>
</svg>
