<svg width="14" height="13" viewBox="0 0 14 13" fill="none" xmlns="http://www.w3.org/2000/svg">
<path d="M12.6875 3.25H9.625V1.28125C9.625 0.925781 9.32422 0.625 8.96875 0.625H5.03125C4.64844 0.625 4.375 0.925781 4.375 1.28125V3.25H1.3125C0.574219 3.25 0 3.85156 0 4.5625V11.5625C0 12.3008 0.574219 12.875 1.3125 12.875H12.6875C13.3984 12.875 14 12.3008 14 11.5625V4.5625C14 3.85156 13.3984 3.25 12.6875 3.25ZM5.25 1.5H8.75V3.25H5.25V1.5ZM13.125 11.5625C13.125 11.8086 12.9062 12 12.6875 12H1.3125C1.06641 12 0.875 11.8086 0.875 11.5625V7.625H5.25V8.71875C5.25 9.10156 5.52344 9.375 5.90625 9.375H8.09375C8.44922 9.375 8.75 9.10156 8.75 8.71875V7.625H13.125V11.5625ZM6.125 8.5V7.625H7.875V8.5H6.125ZM13.125 6.75H0.875V4.5625C0.875 4.34375 1.06641 4.125 1.3125 4.125H12.6875C12.9062 4.125 13.125 4.34375 13.125 4.5625V6.75Z" fill="#686868"/>
</svg>
