<svg width="21" height="20" viewBox="0 0 21 20" fill="none" xmlns="http://www.w3.org/2000/svg">
<path d="M10.5 1.25C12.8828 1.25 14.875 3.24219 14.875 5.625C14.875 8.04688 12.8828 10 10.5 10C8.07813 10 6.125 8.04688 6.125 5.625C6.125 3.24219 8.07813 1.25 10.5 1.25ZM15.5 13.75C17.5312 13.75 19.25 15.4688 19.25 17.5V18.75H1.75V17.5C1.75 15.4688 3.42969 13.75 5.5 13.75C8.82031 13.75 8.11719 14.375 10.5 14.375C12.8438 14.375 12.1406 13.75 15.5 13.75ZM10.5 0C7.375 0 4.875 2.53906 4.875 5.625C4.875 8.75 7.375 11.25 10.5 11.25C13.5859 11.25 16.125 8.75 16.125 5.625C16.125 2.53906 13.5859 0 10.5 0ZM15.5 12.5C11.8672 12.5 12.7266 13.125 10.5 13.125C8.27344 13.125 9.09375 12.5 5.5 12.5C2.72656 12.5 0.5 14.7656 0.5 17.5V18.75C0.5 19.4531 1.04688 20 1.75 20H19.25C19.9141 20 20.5 19.4531 20.5 18.75V17.5C20.5 14.7656 18.2344 12.5 15.5 12.5Z" fill="#949494"/>
</svg>
