<svg width="16" height="17" viewBox="0 0 16 17" fill="none" xmlns="http://www.w3.org/2000/svg">
<path d="M15.8828 15.1348L12.0997 11.3591C12.0059 11.2967 11.9121 11.2343 11.8183 11.2343H11.4118C12.381 10.1109 13.0064 8.61312 13.0064 6.99049C13.0064 3.4332 10.0674 0.5 6.50318 0.5C2.90767 0.5 0 3.4332 0 6.99049C0 10.579 2.90767 13.481 6.50318 13.481C8.12897 13.481 9.59844 12.8881 10.7553 11.9208V12.3264C10.7553 12.42 10.7865 12.5137 10.849 12.6073L14.6321 16.383C14.7885 16.539 15.0386 16.539 15.1637 16.383L15.8828 15.6653C16.0391 15.5405 16.0391 15.2908 15.8828 15.1348ZM6.50318 11.9832C3.72057 11.9832 1.50073 9.76767 1.50073 6.99049C1.50073 4.24452 3.72057 1.99781 6.50318 1.99781C9.25452 1.99781 11.5056 4.24452 11.5056 6.99049C11.5056 9.76767 9.25452 11.9832 6.50318 11.9832Z" fill="#949494"/>
</svg>
