<svg width="20" height="20" viewBox="0 0 20 20" fill="none" xmlns="http://www.w3.org/2000/svg">
<path d="M20 10C20 4.51613 15.4839 0 10 0C4.47581 0 0 4.51613 0 10C0 15.5242 4.47581 20 10 20C15.4839 20 20 15.5242 20 10ZM8.83065 15.3226C8.58871 15.5645 8.14516 15.5645 7.90323 15.3226L3.70968 11.129C3.46774 10.8871 3.46774 10.4435 3.70968 10.2016L4.6371 9.31452C4.87903 9.03226 5.28226 9.03226 5.52419 9.31452L8.3871 12.1371L14.4355 6.08871C14.6774 5.80645 15.0806 5.80645 15.3226 6.08871L16.25 6.97581C16.4919 7.21774 16.4919 7.66129 16.25 7.90323L8.83065 15.3226Z" fill="#E8E8E8"/>
</svg>
