<svg width="24" height="24" viewBox="0 0 24 24" fill="none" xmlns="http://www.w3.org/2000/svg">
<path d="M12.0002 0.5C5.55527 0.5 0.333496 5.72177 0.333496 12.1667C0.333496 18.6116 5.55527 23.8333 12.0002 23.8333C18.4451 23.8333 23.6668 18.6116 23.6668 12.1667C23.6668 5.72177 18.4451 0.5 12.0002 0.5ZM12.0002 21.5753C6.77839 21.5753 2.59156 17.3884 2.59156 12.1667C2.59156 6.99194 6.77839 2.75806 12.0002 2.75806C17.1749 2.75806 21.4088 6.99194 21.4088 12.1667C21.4088 17.3884 17.1749 21.5753 12.0002 21.5753ZM8.23672 11.414C9.03645 11.414 9.7421 10.7554 9.7421 9.9086C9.7421 9.10887 9.03645 8.40323 8.23672 8.40323C7.38995 8.40323 6.73135 9.10887 6.73135 9.9086C6.73135 10.7554 7.38995 11.414 8.23672 11.414ZM15.7636 11.414C16.5633 11.414 17.269 10.7554 17.269 9.9086C17.269 9.10887 16.5633 8.40323 15.7636 8.40323C14.9168 8.40323 14.2582 9.10887 14.2582 9.9086C14.2582 10.7554 14.9168 11.414 15.7636 11.414ZM15.9518 14.8481C14.9639 16.0242 13.5055 16.6828 12.0002 16.6828C10.4477 16.6828 8.98941 16.0242 8.04855 14.8481C7.62516 14.3777 6.91952 14.3306 6.44909 14.707C5.97866 15.0833 5.88457 15.836 6.30796 16.3065C7.71925 18 9.78914 18.9409 12.0002 18.9409C14.1641 18.9409 16.234 18 17.6453 16.3065C18.0687 15.836 18.0217 15.0833 17.5042 14.707C17.0338 14.3306 16.3281 14.3777 15.9518 14.8481Z" fill="white"/>
</svg>
